<?xml version="1.0" standalone="no"?>
<!DOCTYPE svg PUBLIC "-//W3C//DTD SVG 20010904//EN"
 "http://www.w3.org/TR/2001/REC-SVG-20010904/DTD/svg10.dtd">
<svg version="1.0" xmlns="http://www.w3.org/2000/svg"
 width="383.000000pt" height="217.000000pt" viewBox="0 0 383.000000 217.000000"
 preserveAspectRatio="xMidYMid meet">

<g transform="translate(0.000000,217.000000) scale(0.100000,-0.100000)"
fill="#fff" stroke="none">
<path d="M1070 1065 c0 -230 4 -355 10 -355 6 0 10 125 10 355 0 230 -4 355
-10 355 -6 0 -10 -125 -10 -355z"/>
<path d="M1292 1243 l3 -78 66 -3 c52 -2 70 1 89 16 19 16 21 22 11 40 -6 12
-16 22 -21 22 -6 0 -5 9 2 20 24 38 0 55 -81 58 l-72 3 3 -78z m113 32 c0 -5
-15 -11 -32 -13 -25 -3 -33 1 -33 13 0 12 8 16 33 13 17 -2 32 -7 32 -13z m10
-65 c0 -10 -12 -16 -37 -18 -33 -3 -38 0 -38 18 0 18 5 21 38 18 25 -2 37 -8
37 -18z"/>
<path d="M1510 1240 l0 -80 80 0 c64 0 80 3 80 15 0 12 -13 15 -61 15 -52 0
-60 2 -57 18 2 12 15 18 46 20 28 2 42 8 42 18 0 10 -12 14 -45 14 -33 0 -45
4 -45 15 0 10 15 15 57 17 34 2 58 8 61 16 3 9 -17 12 -77 12 l-81 0 0 -80z"/>
<path d="M1700 1240 l0 -80 64 0 c82 0 116 23 116 78 0 63 -28 82 -119 82
l-61 0 0 -80z m131 27 c7 -15 7 -31 0 -50 -9 -22 -17 -27 -46 -27 l-35 0 0 50
0 50 35 0 c27 0 38 -5 46 -23z"/>
<path d="M158 1303 c-111 -4 -112 -5 -101 -91 7 -54 8 -55 14 -22 l6 35 2 -33
c1 -30 3 -32 22 -22 11 6 28 9 37 7 12 -3 10 -5 -6 -6 -30 -1 -24 -25 8 -29
l23 -4 -24 -12 c-30 -15 -39 -62 -12 -69 14 -4 13 -5 -5 -6 -17 -1 -22 -6 -20
-18 3 -14 38 -25 173 -55 94 -20 181 -40 194 -43 21 -5 23 -3 19 25 -4 29 -3
30 31 29 20 -1 28 -3 19 -6 -11 -3 -18 -14 -18 -30 0 -22 3 -24 28 -19 15 3
79 15 142 26 168 30 160 28 159 53 0 21 -1 21 -9 2 -6 -14 -9 -15 -9 -5 -1 12
-10 15 -38 13 l-38 -2 35 8 c53 11 61 19 54 49 -4 15 -8 29 -10 31 -9 10 -280
48 -289 40 -5 -5 -25 -8 -45 -7 l-35 1 34 4 33 4 -28 30 c-22 23 -36 29 -72
29 -41 0 -43 -1 -31 -17 13 -17 13 -17 -7 0 -33 28 -38 20 -9 -15 15 -18 37
-36 49 -40 19 -5 19 -6 -4 -6 -31 0 -83 16 -57 17 22 1 22 14 -3 36 -11 10
-17 22 -14 26 3 5 -25 9 -61 9 l-66 0 32 -39 c22 -28 41 -41 63 -44 17 -2 6
-4 -24 -4 -30 -1 -71 -3 -90 -6 -19 -2 -27 -2 -17 0 9 2 15 8 12 12 -2 5 12 6
31 4 30 -3 35 -1 30 12 -3 9 -6 19 -6 21 0 2 -24 5 -52 6 l-53 1 45 6 c29 4
40 9 32 14 -26 17 2 27 79 27 85 0 88 2 73 58 -6 20 -12 22 -68 20 -33 -1
-104 -4 -158 -5z m-91 -60 c-3 -10 -5 -4 -5 12 0 17 2 24 5 18 2 -7 2 -21 0
-30z m620 -189 c-3 -3 -12 -4 -19 -1 -8 3 -5 6 6 6 11 1 17 -2 13 -5z m-462
-14 c27 -7 27 -8 5 -8 -14 0 -38 4 -55 8 -27 7 -27 8 -5 8 14 0 39 -4 55 -8z
m110 -20 c27 -7 27 -8 5 -8 -14 0 -38 4 -55 8 -27 7 -27 8 -5 8 14 0 39 -4 55
-8z m345 -16 c-41 -7 -86 -12 -100 -12 -33 1 107 26 145 26 17 0 -4 -6 -45
-14z m-277 -1 c-7 -2 -19 -2 -25 0 -7 3 -2 5 12 5 14 0 19 -2 13 -5z m60 -10
c-7 -2 -21 -2 -30 0 -10 3 -4 5 12 5 17 0 24 -2 18 -5z"/>
<path d="M71 1119 c1 -19 5 -47 10 -64 5 -20 6 -9 2 30 -6 66 -14 88 -12 34z"/>
<path d="M91 1113 c0 -16 3 -22 6 -13 3 8 10 21 16 28 7 8 5 12 -7 12 -11 0
-16 -8 -15 -27z"/>
<path d="M51 1094 c0 -11 3 -14 6 -6 3 7 2 16 -1 19 -3 4 -6 -2 -5 -13z"/>
<path d="M62 1040 c0 -14 2 -19 5 -12 2 6 2 18 0 25 -3 6 -5 1 -5 -13z"/>
<path d="M1331 988 c-36 -19 -52 -64 -37 -108 9 -29 19 -37 53 -48 38 -12 47
-12 80 5 20 10 39 24 41 30 7 23 -27 25 -53 5 -32 -26 -66 -17 -79 20 -12 33
-3 55 29 70 20 9 28 8 43 -5 19 -18 62 -23 62 -9 0 36 -96 63 -139 40z"/>
<path d="M1554 991 c-29 -13 -54 -50 -54 -81 0 -60 66 -98 136 -79 61 17 81
102 34 144 -22 20 -86 28 -116 16z m74 -37 c28 -19 29 -57 2 -84 -24 -24 -29
-24 -58 -4 -26 18 -30 65 -6 88 19 20 34 20 62 0z"/>
<path d="M2330 988 c-55 -29 -63 -113 -14 -145 37 -24 100 -20 129 7 14 13 25
34 25 47 0 20 -5 23 -40 23 -41 0 -57 -21 -24 -34 8 -3 12 -10 9 -16 -9 -15
-61 -12 -74 4 -20 24 -9 69 21 85 24 14 28 14 46 -2 19 -18 62 -24 62 -9 0 36
-96 63 -140 40z"/>
<path d="M3370 988 c-52 -28 -62 -96 -20 -138 31 -31 113 -28 145 5 51 51 17
132 -60 141 -23 3 -51 -1 -65 -8z m85 -34 c21 -22 16 -73 -10 -90 -52 -34
-105 54 -53 90 28 20 42 20 63 0z"/>
<path d="M1740 910 c0 -73 2 -80 20 -80 17 0 20 7 20 45 0 25 4 45 8 45 5 0
23 -20 41 -45 23 -32 39 -45 57 -45 23 0 24 2 24 80 0 73 -2 80 -20 80 -17 0
-20 -7 -20 -45 0 -25 -4 -45 -8 -45 -5 0 -23 20 -41 45 -23 32 -39 45 -57 45
-23 0 -24 -2 -24 -80z"/>
<path d="M1960 910 c0 -70 2 -80 18 -80 10 0 22 12 29 30 10 26 16 30 47 30
25 0 36 4 36 15 0 11 -11 15 -40 15 -33 0 -40 3 -40 20 0 18 7 20 55 20 42 0
55 3 55 15 0 12 -16 15 -80 15 l-80 0 0 -80z"/>
<path d="M2140 975 c0 -8 7 -15 15 -15 11 0 15 -12 15 -50 0 -38 -4 -50 -15
-50 -8 0 -15 -7 -15 -15 0 -12 13 -15 55 -15 42 0 55 3 55 15 0 8 -7 15 -15
15 -11 0 -15 12 -15 50 0 38 4 50 15 50 8 0 15 7 15 15 0 12 -13 15 -55 15
-42 0 -55 -3 -55 -15z"/>
<path d="M2510 934 c0 -30 4 -64 10 -74 21 -39 113 -46 144 -11 9 10 19 45 22
79 7 62 7 62 -20 62 -25 0 -26 -2 -26 -60 0 -48 -4 -61 -19 -70 -42 -22 -71
12 -71 84 0 39 -3 46 -20 46 -18 0 -20 -7 -20 -56z"/>
<path d="M2730 909 c0 -78 1 -80 23 -77 16 2 23 11 25 31 5 38 43 37 72 -3 12
-16 30 -30 41 -30 23 0 24 9 2 39 -13 19 -14 28 -5 42 18 28 14 57 -7 69 -11
5 -49 10 -85 10 l-66 0 0 -81z m123 45 c14 -15 -8 -34 -39 -34 -27 0 -34 4
-34 20 0 16 7 20 33 20 19 0 36 -3 40 -6z"/>
<path d="M2985 958 c-7 -18 -23 -54 -34 -80 l-20 -48 23 0 c13 0 26 7 30 15 3
10 19 15 44 15 23 0 45 -6 52 -15 15 -19 54 -20 47 -2 -3 7 -18 43 -33 80 -27
63 -31 67 -62 67 -28 0 -35 -5 -47 -32z m65 -50 c0 -11 -8 -18 -20 -18 -23 0
-25 12 -9 42 9 17 13 18 20 7 5 -8 9 -22 9 -31z"/>
<path d="M3132 978 c3 -7 18 -15 34 -18 28 -5 29 -7 32 -68 3 -54 6 -62 22
-62 18 0 20 7 20 65 l0 65 30 0 c20 0 30 5 30 15 0 12 -16 15 -86 15 -64 0
-85 -3 -82 -12z"/>
<path d="M3560 910 c0 -72 2 -80 19 -80 14 0 21 8 23 28 2 21 9 28 30 30 20 2
30 -4 44 -27 12 -21 26 -31 42 -31 l24 0 -22 37 c-19 32 -20 37 -6 45 21 12
20 41 -2 61 -13 12 -37 17 -85 17 l-67 0 0 -80z m120 30 c0 -16 -7 -20 -34
-20 -19 0 -38 5 -41 10 -11 18 5 30 41 30 27 0 34 -4 34 -20z"/>
<path d="M503 925 c0 -33 2 -45 4 -27 2 18 2 45 0 60 -2 15 -4 0 -4 -33z"/>
</g>
</svg>
